<svg width="20" height="20" viewBox="0 0 20 20" fill="none" xmlns="http://www.w3.org/2000/svg">
<path d="M16.25 19.5463C16.9629 18.9414 18.0371 18.9414 18.75 19.5463C19.2343 19.9573 20 19.6291 20 19.0105V0.989544C20 0.370918 19.2343 0.0426909 18.75 0.453684C18.0371 1.05859 16.9629 1.05859 16.25 0.453683C15.5371 -0.151228 14.4629 -0.151228 13.75 0.453683C13.0371 1.05859 11.9629 1.05859 11.25 0.453683C10.5371 -0.151228 9.46287 -0.151228 8.75 0.453683C8.03713 1.05859 6.96287 1.05859 6.25 0.453683C5.53713 -0.151228 4.46287 -0.151228 3.75 0.453683C3.03713 1.05859 1.96287 1.05859 1.25 0.453684C0.765655 0.0426909 0 0.370918 0 0.989544V19.0105C0 19.6291 0.765655 19.9573 1.25 19.5463C1.96287 18.9414 3.03713 18.9414 3.75 19.5463C4.46287 20.1512 5.53713 20.1512 6.25 19.5463C6.96287 18.9414 8.03713 18.9414 8.75 19.5463C9.46287 20.1512 10.5371 20.1512 11.25 19.5463C11.9629 18.9414 13.0371 18.9414 13.75 19.5463C14.4629 20.1512 15.5371 20.1512 16.25 19.5463Z" fill="#2563EB"/>
<path d="M4.16602 13.8885C4.16602 13.4282 4.53911 13.0551 4.99935 13.0551H14.9993C15.4596 13.0551 15.8327 13.4282 15.8327 13.8885C15.8327 14.3487 15.4596 14.7218 14.9993 14.7218H4.99935C4.53911 14.7218 4.16602 14.3487 4.16602 13.8885Z" fill="white"/>
<path d="M4.16602 9.99957C4.16602 9.53933 4.53911 9.16623 4.99935 9.16623H14.9993C15.4596 9.16623 15.8327 9.53933 15.8327 9.99957C15.8327 10.4598 15.4596 10.8329 14.9993 10.8329H4.99935C4.53911 10.8329 4.16602 10.4598 4.16602 9.99957Z" fill="white"/>
<path d="M4.16602 6.11068C4.16602 5.65044 4.53911 5.27734 4.99935 5.27734H14.9993C15.4596 5.27734 15.8327 5.65044 15.8327 6.11068C15.8327 6.57091 15.4596 6.94401 14.9993 6.94401H4.99935C4.53911 6.94401 4.16602 6.57091 4.16602 6.11068Z" fill="white"/>
</svg>
