<svg width="16" height="20" viewBox="0 0 16 20" fill="none" xmlns="http://www.w3.org/2000/svg">
<path d="M1.17157 18.8284C2.34315 20 4.22876 20 8 20C11.7712 20 13.6569 20 14.8284 18.8284C16 17.6569 16 15.7712 16 12L16 8C16 4.22876 16 2.34315 14.8284 1.17157C13.6569 -5.9696e-07 11.7712 -5.14537e-07 8 -3.49691e-07C4.22876 -1.84845e-07 2.34315 -1.02422e-07 1.17157 1.17157C-7.71806e-07 2.34315 -6.89383e-07 4.22876 -5.24537e-07 8L-3.49691e-07 12C-1.84845e-07 15.7712 -1.02422e-07 17.6569 1.17157 18.8284Z" fill="#2563EB"/>
<path fill-rule="evenodd" clip-rule="evenodd" d="M8.18182 11.8172C6.30317 11.8172 5.36385 11.8172 5.09011 12.4077C5.06658 12.4585 5.04674 12.5112 5.03075 12.5654C4.8448 13.196 5.50901 13.9268 6.83741 15.3884L7.72727 16.3627H8.63636L9.52623 15.3884C10.8546 13.9268 11.5188 13.196 11.3329 12.5654C11.3169 12.5112 11.2971 12.4585 11.2735 12.4077C10.9998 11.8172 10.0605 11.8172 8.18182 11.8172Z" fill="white"/>
<path fill-rule="evenodd" clip-rule="evenodd" d="M8.18146 8.63672C10.0601 8.63672 10.9994 8.63672 11.2732 8.04618C11.2967 7.99542 11.3165 7.94269 11.3325 7.88849C11.5185 7.25795 10.8543 6.52712 9.52587 5.06547L8.63601 4.09126L7.72692 4.09126L6.83706 5.06547C5.50865 6.52712 4.84445 7.25795 5.0304 7.88849C5.04638 7.94269 5.06623 7.99542 5.08976 8.04618C5.36349 8.63672 6.30281 8.63672 8.18146 8.63672Z" fill="white"/>
</svg>
