<svg width="20" height="20" viewBox="0 0 20 20" fill="none" xmlns="http://www.w3.org/2000/svg">
<path d="M20 10C20 15.5228 15.5228 20 10 20C4.47715 20 0 15.5228 0 10C0 4.47715 4.47715 0 10 0C15.5228 0 20 4.47715 20 10Z" fill="#2563EB"/>
<path d="M10 5C9.58579 5 9.25 5.33579 9.25 5.75L9.25 11.75C9.25 12.1642 9.58579 12.5 10 12.5C10.4142 12.5 10.75 12.1642 10.75 11.75L10.75 5.75C10.75 5.33579 10.4142 5 10 5Z" fill="white"/>
<path d="M10 15.75C9.44772 15.75 9 15.3023 9 14.75C9 14.1977 9.44772 13.75 10 13.75C10.5523 13.75 11 14.1977 11 14.75C11 15.3023 10.5523 15.75 10 15.75Z" fill="white"/>
</svg>
