<svg xmlns="http://www.w3.org/2000/svg" width="17" height="16" viewBox="0 0 17 16" fill="none">
  <path d="M8.38443 7.11133L8.15332 8.00022H8.87777L8.64221 7.11133H8.38443Z" fill="white"/>
  <path d="M5.80684 8.00022H7.0024L7.23796 7.11133H5.57129L5.80684 8.00022Z" fill="white"/>
  <path d="M6.40692 10.2664L6.76692 8.88867H6.04248L6.40692 10.2664Z" fill="white"/>
  <path d="M10.0285 8.00022H11.2241L11.4596 7.11133H9.79297L10.0285 8.00022Z" fill="white"/>
  <path d="M10.6246 10.2664L10.9891 8.88867H10.2646L10.6246 10.2664Z" fill="white"/>
  <path d="M8.49979 0.888672C7.09334 0.888672 5.71848 1.30573 4.54906 2.08711C3.37965 2.86849 2.4682 3.97909 1.92998 5.27848C1.39175 6.57786 1.25093 8.00767 1.52531 9.38709C1.7997 10.7665 2.47696 12.0336 3.47147 13.0281C4.46598 14.0226 5.73306 14.6999 7.11248 14.9743C8.4919 15.2486 9.92171 15.1078 11.2211 14.5696C12.5205 14.0314 13.6311 13.1199 14.4125 11.9505C15.1938 10.7811 15.6109 9.40623 15.6109 7.99978C15.6109 6.1138 14.8617 4.30506 13.5281 2.97147C12.1945 1.63788 10.3858 0.888672 8.49979 0.888672ZM13.3887 8.88867H12.1398L11.1665 12.5864C11.1356 12.7056 11.066 12.8111 10.9687 12.8864C10.8713 12.9617 10.7517 13.0026 10.6287 13.0026C10.5056 13.0026 10.386 12.9617 10.2887 12.8864C10.1914 12.8111 10.1218 12.7056 10.0909 12.5864L9.11312 8.88867H7.91756L6.94423 12.5864C6.91335 12.7056 6.84378 12.8111 6.74644 12.8864C6.64911 12.9617 6.52952 13.0026 6.40645 13.0026C6.28338 13.0026 6.16379 12.9617 6.06646 12.8864C5.96913 12.8111 5.89956 12.7056 5.86868 12.5864L4.8909 8.88867H3.6109C3.49302 8.88867 3.37998 8.84185 3.29663 8.7585C3.21328 8.67515 3.16645 8.5621 3.16645 8.44423C3.16645 8.32635 3.21328 8.21331 3.29663 8.12996C3.37998 8.04661 3.49302 7.99978 3.6109 7.99978H4.65534L4.41979 7.11089H3.6109C3.49302 7.11089 3.37998 7.06407 3.29663 6.98072C3.21328 6.89737 3.16645 6.78432 3.16645 6.66645C3.16645 6.54858 3.21328 6.43553 3.29663 6.35218C3.37998 6.26883 3.49302 6.22201 3.6109 6.22201H4.18868L3.74423 4.58645C3.70651 4.44382 3.72699 4.29205 3.80118 4.16453C3.87536 4.037 3.99716 3.94417 4.13979 3.90645C4.28241 3.86873 4.43418 3.88921 4.56171 3.9634C4.68923 4.03758 4.78207 4.15938 4.81979 4.30201L5.33534 6.22201H7.46868L7.97534 4.30201C8.00623 4.18287 8.0758 4.07737 8.17313 4.00205C8.27046 3.92673 8.39005 3.88587 8.51312 3.88587C8.63619 3.88587 8.75578 3.92673 8.85311 4.00205C8.95044 4.07737 9.02001 4.18287 9.0509 4.30201L9.55756 6.22201H11.6909L12.1976 4.30201C12.2353 4.15938 12.3281 4.03758 12.4556 3.9634C12.5832 3.88921 12.7349 3.86873 12.8776 3.90645C13.0202 3.94417 13.142 4.037 13.2162 4.16453C13.2904 4.29205 13.3108 4.44382 13.2731 4.58645L12.8287 6.22201H13.3887C13.5065 6.22201 13.6196 6.26883 13.7029 6.35218C13.7863 6.43553 13.8331 6.54858 13.8331 6.66645C13.8331 6.78432 13.7863 6.89737 13.7029 6.98072C13.6196 7.06407 13.5065 7.11089 13.3887 7.11089H12.6065L12.3709 7.99978H13.3887C13.5065 7.99978 13.6196 8.04661 13.7029 8.12996C13.7863 8.21331 13.8331 8.32635 13.8331 8.44423C13.8331 8.5621 13.7863 8.67515 13.7029 8.7585C13.6196 8.84185 13.5065 8.88867 13.3887 8.88867Z" fill="white"/>
</svg>