<svg xmlns="http://www.w3.org/2000/svg" width="17" height="16" viewBox="0 0 17 16" fill="none">
  <path d="M8.50016 1.33301C4.82016 1.33301 1.8335 4.31967 1.8335 7.99967C1.8335 11.6797 4.82016 14.6663 8.50016 14.6663C12.1802 14.6663 15.1668 11.6797 15.1668 7.99967C15.1668 4.31967 12.1802 1.33301 8.50016 1.33301ZM6.6935 10.8597L4.30016 8.46634C4.04016 8.20634 4.04016 7.78634 4.30016 7.52634C4.56016 7.26634 4.98016 7.26634 5.24016 7.52634L7.16683 9.44634L11.7535 4.85967C12.0135 4.59967 12.4335 4.59967 12.6935 4.85967C12.9535 5.11967 12.9535 5.53967 12.6935 5.79967L7.6335 10.8597C7.38016 11.1197 6.9535 11.1197 6.6935 10.8597Z" fill="white"/>
</svg>