<svg width="21" height="21" viewBox="0 0 21 21" fill="none" xmlns="http://www.w3.org/2000/svg">
<path d="M13.25 4.86426C11.88 4.86426 10.75 6.38426 10.75 8.26426C10.75 9.74426 11.45 10.9743 12.42 11.4443L12.5 11.4843V17.8643H14V11.4843L14.08 11.4543C15.05 10.9843 15.75 9.75426 15.75 8.27426C15.75 6.39426 14.63 4.86426 13.25 4.86426ZM9 4.86426C8.73 4.86426 8.5 5.08426 8.5 5.36426V7.86426H7.75V5.36426C7.75 5.08426 7.53 4.86426 7.25 4.86426C6.97 4.86426 6.75 5.08426 6.75 5.36426V7.86426H6V5.36426C6 5.08426 5.78 4.86426 5.5 4.86426C5.22 4.86426 5 5.08426 5 5.36426V9.16426C5 10.0943 5.64 10.8743 6.5 11.0943V17.8643H8V11.0943C8.86 10.8743 9.5 10.0943 9.5 9.16426V5.36426C9.5 5.08426 9.28 4.86426 9 4.86426ZM18.5 2.86426H2.5V18.8643H18.5V2.86426ZM18.5 0.864258C19.6 0.864258 20.5 1.76426 20.5 2.86426V18.8643C20.5 19.9643 19.6 20.8643 18.5 20.8643H2.5C1.4 20.8643 0.5 19.9643 0.5 18.8643V2.86426C0.5 1.76426 1.4 0.864258 2.5 0.864258H18.5Z" fill="#D0D4DB"/>
</svg>
