<svg width="21" height="20" viewBox="0 0 21 20" fill="none" xmlns="http://www.w3.org/2000/svg">
<path d="M13.25 4C11.88 4 10.75 5.52 10.75 7.4C10.75 8.88 11.45 10.11 12.42 10.58L12.5 10.62V17H14V10.62L14.08 10.59C15.05 10.12 15.75 8.89 15.75 7.41C15.75 5.53 14.63 4 13.25 4ZM9 4C8.73 4 8.5 4.22 8.5 4.5V7H7.75V4.5C7.75 4.22 7.53 4 7.25 4C6.97 4 6.75 4.22 6.75 4.5V7H6V4.5C6 4.22 5.78 4 5.5 4C5.22 4 5 4.22 5 4.5V8.3C5 9.23 5.64 10.01 6.5 10.23V17H8V10.23C8.86 10.01 9.5 9.23 9.5 8.3V4.5C9.5 4.22 9.28 4 9 4ZM18.5 2H2.5V18H18.5V2ZM18.5 0C19.6 0 20.5 0.9 20.5 2V18C20.5 19.1 19.6 20 18.5 20H2.5C1.4 20 0.5 19.1 0.5 18V2C0.5 0.9 1.4 0 2.5 0H18.5Z" fill="#1F2937"/>
</svg>
