<svg xmlns="http://www.w3.org/2000/svg" width="16" height="16" viewBox="0 0 16 16" fill="none">
  <path d="M7.88443 7.11133L7.65332 8.00022H8.37777L8.14221 7.11133H7.88443Z" fill="black"/>
  <path d="M5.30684 8.00022H6.5024L6.73796 7.11133H5.07129L5.30684 8.00022Z" fill="black"/>
  <path d="M5.90692 10.2664L6.26692 8.88867H5.54248L5.90692 10.2664Z" fill="black"/>
  <path d="M9.52852 8.00022H10.7241L10.9596 7.11133H9.29297L9.52852 8.00022Z" fill="black"/>
  <path d="M10.1246 10.2664L10.4891 8.88867H9.76465L10.1246 10.2664Z" fill="black"/>
  <path d="M7.99979 0.888672C6.59334 0.888672 5.21848 1.30573 4.04906 2.08711C2.87965 2.86849 1.9682 3.97909 1.42998 5.27848C0.891753 6.57786 0.750929 8.00767 1.02531 9.38709C1.2997 10.7665 1.97696 12.0336 2.97147 13.0281C3.96598 14.0226 5.23306 14.6999 6.61248 14.9743C7.9919 15.2486 9.42171 15.1078 10.7211 14.5696C12.0205 14.0314 13.1311 13.1199 13.9125 11.9505C14.6938 10.7811 15.1109 9.40623 15.1109 7.99978C15.1109 6.1138 14.3617 4.30506 13.0281 2.97147C11.6945 1.63788 9.88577 0.888672 7.99979 0.888672ZM12.8887 8.88867H11.6398L10.6665 12.5864C10.6356 12.7056 10.566 12.8111 10.4687 12.8864C10.3713 12.9617 10.2517 13.0026 10.1287 13.0026C10.0056 13.0026 9.88602 12.9617 9.78868 12.8864C9.69135 12.8111 9.62178 12.7056 9.5909 12.5864L8.61312 8.88867H7.41756L6.44423 12.5864C6.41335 12.7056 6.34378 12.8111 6.24644 12.8864C6.14911 12.9617 6.02952 13.0026 5.90645 13.0026C5.78338 13.0026 5.66379 12.9617 5.56646 12.8864C5.46913 12.8111 5.39956 12.7056 5.36868 12.5864L4.3909 8.88867H3.1109C2.99302 8.88867 2.87998 8.84185 2.79663 8.7585C2.71328 8.67515 2.66645 8.5621 2.66645 8.44423C2.66645 8.32635 2.71328 8.21331 2.79663 8.12996C2.87998 8.04661 2.99302 7.99978 3.1109 7.99978H4.15534L3.91979 7.11089H3.1109C2.99302 7.11089 2.87998 7.06407 2.79663 6.98072C2.71328 6.89737 2.66645 6.78432 2.66645 6.66645C2.66645 6.54858 2.71328 6.43553 2.79663 6.35218C2.87998 6.26883 2.99302 6.22201 3.1109 6.22201H3.68868L3.24423 4.58645C3.20651 4.44382 3.22699 4.29205 3.30118 4.16453C3.37536 4.037 3.49716 3.94417 3.63979 3.90645C3.78241 3.86873 3.93418 3.88921 4.06171 3.9634C4.18923 4.03758 4.28207 4.15938 4.31979 4.30201L4.83534 6.22201H6.96868L7.47534 4.30201C7.50623 4.18287 7.5758 4.07737 7.67313 4.00205C7.77046 3.92673 7.89005 3.88587 8.01312 3.88587C8.13619 3.88587 8.25578 3.92673 8.35311 4.00205C8.45044 4.07737 8.52001 4.18287 8.5509 4.30201L9.05756 6.22201H11.1909L11.6976 4.30201C11.7353 4.15938 11.8281 4.03758 11.9556 3.9634C12.0832 3.88921 12.2349 3.86873 12.3776 3.90645C12.5202 3.94417 12.642 4.037 12.7162 4.16453C12.7904 4.29205 12.8108 4.44382 12.7731 4.58645L12.3287 6.22201H12.8887C13.0065 6.22201 13.1196 6.26883 13.2029 6.35218C13.2863 6.43553 13.3331 6.54858 13.3331 6.66645C13.3331 6.78432 13.2863 6.89737 13.2029 6.98072C13.1196 7.06407 13.0065 7.11089 12.8887 7.11089H12.1065L11.8709 7.99978H12.8887C13.0065 7.99978 13.1196 8.04661 13.2029 8.12996C13.2863 8.21331 13.3331 8.32635 13.3331 8.44423C13.3331 8.5621 13.2863 8.67515 13.2029 8.7585C13.1196 8.84185 13.0065 8.88867 12.8887 8.88867Z" fill="black"/>
</svg>