<svg width="16" height="19" viewBox="0 0 16 19" fill="none" xmlns="http://www.w3.org/2000/svg">
<path d="M13.2842 14.8125H2.71557C1.76809 14.8125 1 14.0273 1 13.0586C1 12.7407 1.08451 12.4288 1.24448 12.1562C2.26457 10.4181 2.80342 8.42928 2.80342 6.40231V5.25C2.80342 2.90279 4.66464 1 6.96058 1H9.03916C11.3351 1 13.1963 2.90279 13.1963 5.25V6.40231C13.1963 8.42928 13.7352 10.4181 14.7553 12.1562C15.2427 12.9869 14.9793 14.0642 14.1668 14.5626C13.9002 14.7261 13.5951 14.8125 13.2842 14.8125ZM10.5981 16.4062C9.90524 17.4688 9.03916 18 7.99987 18C6.96058 18 6.0945 17.4688 5.40164 16.4062" fill="white"/>
<path d="M10.5981 16.4062C9.90524 17.4688 9.03916 18 7.99987 18C6.96058 18 6.0945 17.4688 5.40164 16.4062M13.2842 14.8125H2.71557C1.76809 14.8125 1 14.0273 1 13.0586C1 12.7407 1.08451 12.4288 1.24448 12.1562C2.26457 10.4181 2.80342 8.42928 2.80342 6.40231V5.25C2.80342 2.90279 4.66464 1 6.96058 1H9.03916C11.3351 1 13.1963 2.90279 13.1963 5.25V6.40231C13.1963 8.42928 13.7352 10.4181 14.7553 12.1562C15.2427 12.9869 14.9793 14.0642 14.1668 14.5626C13.9002 14.7261 13.5951 14.8125 13.2842 14.8125Z" stroke="white" stroke-linecap="round" stroke-linejoin="round"/>
</svg>
