<svg width="10" height="11" viewBox="0 0 10 11" fill="none" xmlns="http://www.w3.org/2000/svg">
<circle cx="5" cy="5.5" r="4.6" stroke="#DE291D" stroke-width="0.8"/>
<path fill-rule="evenodd" clip-rule="evenodd" d="M3.07029 3.57029C3.16402 3.47657 3.31598 3.47657 3.40971 3.57029L5.00001 5.1606L6.59029 3.57031C6.68402 3.47658 6.83598 3.47658 6.92971 3.57031C7.02343 3.66403 7.02343 3.81599 6.92971 3.90972L5.33942 5.50001L6.92969 7.09028C7.02342 7.18401 7.02342 7.33597 6.92969 7.42969C6.83597 7.52342 6.68401 7.52342 6.59028 7.42969L5.00001 5.83942L3.40972 7.42971C3.31599 7.52343 3.16404 7.52343 3.07031 7.42971C2.97658 7.33598 2.97658 7.18402 3.07031 7.09029L4.6606 5.50001L3.07029 3.90971C2.97657 3.81598 2.97657 3.66402 3.07029 3.57029Z" fill="#DE291D"/>
</svg>
