<svg width="10" height="10" viewBox="0 0 10 10" fill="none" xmlns="http://www.w3.org/2000/svg">
<circle cx="5" cy="5" r="4.6" stroke="#15965A" stroke-width="0.8"/>
<path d="M6.92677 3.34276C6.97366 3.38971 7 3.45336 7 3.51972C7 3.58607 6.97366 3.64972 6.92677 3.69667L4.50619 6.11725C4.45924 6.16414 4.39559 6.19048 4.32924 6.19048C4.26288 6.19048 4.19924 6.16414 4.15228 6.11725L3.0672 5.03216C3.02299 4.98466 2.99892 4.92188 3.00004 4.857C3.00116 4.79212 3.02739 4.73021 3.07321 4.68426C3.11915 4.63844 3.18107 4.61221 3.24594 4.61109C3.31082 4.60997 3.37361 4.63405 3.4211 4.67825L4.32924 5.58639L6.57286 3.34276C6.61981 3.29587 6.68346 3.26953 6.74982 3.26953C6.81617 3.26953 6.87982 3.29587 6.92677 3.34276Z" fill="#15965A"/>
</svg>
