<svg width="25" height="20" viewBox="0 0 25 20" fill="none" xmlns="http://www.w3.org/2000/svg">
<path d="M0 9.30221C0 7.24724 1.6582 5.58136 3.7037 5.58136H21.2963C23.3418 5.58136 25 7.24724 25 9.30221V13.4882C25 15.5431 23.3418 17.209 21.2963 17.209H3.7037C1.6582 17.209 0 15.5431 0 13.4882V9.30221Z" fill="#2563EB"/>
<path fill-rule="evenodd" clip-rule="evenodd" d="M3.70312 17.1807V18.1397C3.70312 19.1672 4.53223 20.0002 5.55498 20.0002H6.4809C7.50365 20.0002 8.33276 19.1672 8.33276 18.1397V17.2095H6.94387V18.1397C6.94387 18.3966 6.73659 18.6049 6.4809 18.6049H5.55498C5.29929 18.6049 5.09201 18.3966 5.09201 18.1397V17.2095H4.16609C4.0093 17.2095 3.85479 17.1997 3.70312 17.1807Z" fill="#2563EB"/>
<path fill-rule="evenodd" clip-rule="evenodd" d="M17.1289 16.7445V18.1398C17.1289 19.1673 17.958 20.0003 18.9808 20.0003H19.9067C20.9294 20.0003 21.7585 19.1673 21.7585 18.1398V16.7157C21.6069 16.7347 21.4524 16.7445 21.2956 16.7445H20.3696V18.1398C20.3696 18.3967 20.1624 18.6049 19.9067 18.6049H18.9808C18.7251 18.6049 18.5178 18.3967 18.5178 18.1398V16.7445H17.1289Z" fill="#2563EB"/>
<path fill-rule="evenodd" clip-rule="evenodd" d="M8.79677 0C5.72852 0 3.24121 2.49882 3.24121 5.58128V6.96951C3.39287 6.95051 3.54739 6.94073 3.70417 6.94073H21.2968C21.4536 6.94073 21.6081 6.95051 21.7597 6.96951V5.58127C21.7597 2.49882 19.2724 0 16.2042 0H8.79677Z" fill="#2563EB"/>
<path d="M7.40683 11.6281C7.40683 12.6555 6.57773 13.4885 5.55498 13.4885C4.53223 13.4885 3.70312 12.6555 3.70312 11.6281C3.70312 10.6006 4.53223 9.76764 5.55498 9.76764C6.57773 9.76764 7.40683 10.6006 7.40683 11.6281Z" fill="white"/>
<path d="M21.2965 11.6281C21.2965 12.6555 20.4674 13.4885 19.4446 13.4885C18.4219 13.4885 17.5928 12.6555 17.5928 11.6281C17.5928 10.6006 18.4219 9.76764 19.4446 9.76764C20.4674 9.76764 21.2965 10.6006 21.2965 11.6281Z" fill="white"/>
<path d="M9.72266 10.4653C9.72266 10.08 10.0336 9.76764 10.4171 9.76764H14.5838C14.9673 9.76764 15.2782 10.08 15.2782 10.4653C15.2782 10.8506 14.9673 11.163 14.5838 11.163H10.4171C10.0336 11.163 9.72266 10.8506 9.72266 10.4653Z" fill="white"/>
<path d="M9.72266 12.7905C9.72266 12.4052 10.0336 12.0928 10.4171 12.0928H14.5838C14.9673 12.0928 15.2782 12.4052 15.2782 12.7905C15.2782 13.1758 14.9673 13.4882 14.5838 13.4882H10.4171C10.0336 13.4882 9.72266 13.1758 9.72266 12.7905Z" fill="white"/>
<path d="M4.62988 16.2791H7.40766V18.6046H4.62988V16.2791Z" fill="#2563EB"/>
<path d="M18.0557 16.2791H20.8334V18.6046H18.0557V16.2791Z" fill="#2563EB"/>
</svg>
