<svg width="20" height="20" viewBox="0 0 20 20" fill="none" xmlns="http://www.w3.org/2000/svg">
<path d="M0 10C0 5.28595 0 2.92893 1.46447 1.46447C2.92893 0 5.28595 0 10 0C14.714 0 17.0711 0 18.5355 1.46447C20 2.92893 20 5.28595 20 10C20 14.714 20 17.0711 18.5355 18.5355C17.0711 20 14.714 20 10 20C5.28595 20 2.92893 20 1.46447 18.5355C0 17.0711 0 14.714 0 10Z" fill="#2563EB"/>
<path d="M8.5431 5.51718C8.82877 5.21723 8.81719 4.7425 8.51724 4.45684C8.21729 4.17117 7.74256 4.18275 7.4569 4.4827L5.14286 6.91244L4.5431 6.2827C4.25744 5.98275 3.78271 5.97117 3.48276 6.25684C3.18281 6.5425 3.17123 7.01723 3.4569 7.31718L4.59976 8.51718C4.74131 8.66582 4.9376 8.74994 5.14286 8.74994C5.34812 8.74994 5.5444 8.66582 5.68596 8.51718L8.5431 5.51718Z" fill="white"/>
<path d="M11 6.24994C10.5858 6.24994 10.25 6.58573 10.25 6.99994C10.25 7.41415 10.5858 7.74994 11 7.74994H16C16.4142 7.74994 16.75 7.41415 16.75 6.99994C16.75 6.58573 16.4142 6.24994 16 6.24994H11Z" fill="white"/>
<path d="M8.5431 12.5172C8.82877 12.2172 8.81719 11.7425 8.51724 11.4568C8.21729 11.1712 7.74256 11.1828 7.4569 11.4827L5.14286 13.9124L4.5431 13.2827C4.25744 12.9828 3.78271 12.9712 3.48276 13.2568C3.18281 13.5425 3.17123 14.0172 3.4569 14.3172L4.59976 15.5172C4.74131 15.6658 4.9376 15.7499 5.14286 15.7499C5.34812 15.7499 5.5444 15.6658 5.68596 15.5172L8.5431 12.5172Z" fill="white"/>
<path d="M11 13.2499C10.5858 13.2499 10.25 13.5857 10.25 13.9999C10.25 14.4142 10.5858 14.7499 11 14.7499H16C16.4142 14.7499 16.75 14.4142 16.75 13.9999C16.75 13.5857 16.4142 13.2499 16 13.2499H11Z" fill="white"/>
</svg>
