<svg width="34" height="34" viewBox="0 0 34 34" fill="none" xmlns="http://www.w3.org/2000/svg">
<path fill-rule="evenodd" clip-rule="evenodd" d="M17.0002 0.333008C7.79516 0.333008 0.333496 7.79467 0.333496 16.9997C0.333496 26.2047 7.79516 33.6663 17.0002 33.6663C26.2052 33.6663 33.6668 26.2047 33.6668 16.9997C33.6668 7.79467 26.2052 0.333008 17.0002 0.333008ZM11.1668 12.833C11.1668 12.067 11.3177 11.3084 11.6109 10.6007C11.904 9.89296 12.3337 9.24989 12.8754 8.70822C13.417 8.16654 14.0601 7.73686 14.7678 7.44371C15.4756 7.15056 16.2341 6.99967 17.0002 6.99967C17.7662 6.99967 18.5247 7.15056 19.2325 7.44371C19.9402 7.73686 20.5833 8.16654 21.125 8.70822C21.6666 9.24989 22.0963 9.89296 22.3895 10.6007C22.6826 11.3084 22.8335 12.067 22.8335 12.833C22.8335 14.3801 22.2189 15.8638 21.125 16.9578C20.031 18.0518 18.5473 18.6663 17.0002 18.6663C15.4531 18.6663 13.9693 18.0518 12.8754 16.9578C11.7814 15.8638 11.1668 14.3801 11.1668 12.833ZM27.4302 25.3063C26.1826 26.8757 24.5965 28.1429 22.7904 29.0133C20.9844 29.8838 19.005 30.3349 17.0002 30.333C14.9953 30.3349 13.0159 29.8838 11.2099 29.0133C9.40383 28.1429 7.81777 26.8757 6.57016 25.3063C9.27183 23.368 12.9585 21.9997 17.0002 21.9997C21.0418 21.9997 24.7285 23.368 27.4302 25.3063Z" fill="black"/>
</svg>
