<svg width="55" height="50" viewBox="0 0 55 50" fill="none" xmlns="http://www.w3.org/2000/svg">
<g clip-path="url(#clip0_463_3078)">
<path fill-rule="evenodd" clip-rule="evenodd" d="M26.0361 4.16699C14.4378 4.16699 5.03613 13.5687 5.03613 25.167C5.03613 36.7653 14.4378 46.167 26.0361 46.167C37.6344 46.167 47.0361 36.7653 47.0361 25.167C47.0361 13.5687 37.6344 4.16699 26.0361 4.16699ZM18.6861 19.917C18.6861 18.9518 18.8762 17.996 19.2456 17.1043C19.615 16.2125 20.1564 15.4023 20.8389 14.7198C21.5214 14.0372 22.3317 13.4958 23.2234 13.1265C24.1152 12.7571 25.0709 12.567 26.0361 12.567C27.0013 12.567 27.9571 12.7571 28.8489 13.1265C29.7406 13.4958 30.5509 14.0372 31.2334 14.7198C31.9159 15.4023 32.4573 16.2125 32.8266 17.1043C33.196 17.996 33.3861 18.9518 33.3861 19.917C33.3861 21.8663 32.6118 23.7358 31.2334 25.1142C29.855 26.4926 27.9855 27.267 26.0361 27.267C24.0868 27.267 22.2173 26.4926 20.8389 25.1142C19.4605 23.7358 18.6861 21.8663 18.6861 19.917ZM39.1779 35.6334C37.6059 37.6108 35.6075 39.2075 33.3319 40.3042C31.0563 41.4009 28.5623 41.9693 26.0361 41.967C23.51 41.9693 21.016 41.4009 18.7404 40.3042C16.4647 39.2075 14.4663 37.6108 12.8943 35.6334C16.2984 33.1911 20.9436 31.467 26.0361 31.467C31.1286 31.467 35.7738 33.1911 39.1779 35.6334Z" fill="#1A1A1A"/>
</g>
<defs>
<clipPath id="clip0_463_3078">
<rect width="54" height="50" fill="white" transform="translate(0.535645)"/>
</clipPath>
</defs>
</svg>
