<svg width="66" height="68" viewBox="0 0 66 68" fill="none" xmlns="http://www.w3.org/2000/svg">
<g filter="url(#filter0_d_971_5518)">
<circle cx="33" cy="33" r="33" fill="#E5E7EB"/>
</g>
<mask id="mask0_971_5518" style="mask-type:alpha" maskUnits="userSpaceOnUse" x="0" y="0" width="66" height="66">
<circle cx="33" cy="33" r="33" fill="white"/>
</mask>
<g mask="url(#mask0_971_5518)">
<path fill-rule="evenodd" clip-rule="evenodd" d="M21.1744 22.2266H31.0349C35.6832 22.2266 38.0073 22.2266 39.4513 23.6706C40.8954 25.1146 40.8954 27.4388 40.8954 32.087V62.2847H44.593H55.6861H58.1512C59.1723 62.2847 60 63.1125 60 64.1335C60 65.1546 59.1723 65.9824 58.1512 65.9824H8.84884C7.82775 65.9824 7 65.1546 7 64.1335C7 63.1125 7.82775 62.2847 8.84884 62.2847H11.314V32.087C11.314 27.4388 11.314 25.1146 12.758 23.6706C14.202 22.2266 16.5262 22.2266 21.1744 22.2266ZM16.8605 29.6219C16.8605 28.6008 17.6882 27.7731 18.7093 27.7731H33.5C34.5211 27.7731 35.3488 28.6008 35.3488 29.6219C35.3488 30.643 34.5211 31.4707 33.5 31.4707H18.7093C17.6882 31.4707 16.8605 30.643 16.8605 29.6219ZM16.8605 37.0173C16.8605 35.9962 17.6882 35.1684 18.7093 35.1684H33.5C34.5211 35.1684 35.3488 35.9962 35.3488 37.0173C35.3488 38.0383 34.5211 38.8661 33.5 38.8661H18.7093C17.6882 38.8661 16.8605 38.0383 16.8605 37.0173ZM16.8605 44.4126C16.8605 43.3915 17.6882 42.5638 18.7093 42.5638H33.5C34.5211 42.5638 35.3488 43.3915 35.3488 44.4126C35.3488 45.4337 34.5211 46.2614 33.5 46.2614H18.7093C17.6882 46.2614 16.8605 45.4337 16.8605 44.4126ZM26.1047 54.8894C27.1257 54.8894 27.9535 55.7171 27.9535 56.7382V62.2847H24.2558V56.7382C24.2558 55.7171 25.0836 54.8894 26.1047 54.8894Z" fill="white"/>
<path d="M39.4361 15H44.3663C49.0146 15 51.3387 15 52.7827 16.444C54.2268 17.8881 54.2268 20.2122 54.2268 24.8605V62.4535H39.4361V32.2558C39.4361 27.6075 39.4361 25.2834 37.9921 23.8394C36.5806 22.4279 34.3282 22.3961 29.8862 22.3954V18.6976C30.094 17.743 30.4408 17.0228 31.0196 16.444C32.4637 15 34.7878 15 39.4361 15Z" fill="#F4F4F5"/>
</g>
<defs>
<filter id="filter0_d_971_5518" x="0" y="0" width="66" height="68" filterUnits="userSpaceOnUse" color-interpolation-filters="sRGB">
<feFlood flood-opacity="0" result="BackgroundImageFix"/>
<feColorMatrix in="SourceAlpha" type="matrix" values="0 0 0 0 0 0 0 0 0 0 0 0 0 0 0 0 0 0 127 0" result="hardAlpha"/>
<feMorphology radius="2" operator="erode" in="SourceAlpha" result="effect1_dropShadow_971_5518"/>
<feOffset dy="3"/>
<feGaussianBlur stdDeviation="0.5"/>
<feComposite in2="hardAlpha" operator="out"/>
<feColorMatrix type="matrix" values="0 0 0 0 0.279167 0 0 0 0 0.279167 0 0 0 0 0.279167 0 0 0 0.25 0"/>
<feBlend mode="normal" in2="BackgroundImageFix" result="effect1_dropShadow_971_5518"/>
<feBlend mode="normal" in="SourceGraphic" in2="effect1_dropShadow_971_5518" result="shape"/>
</filter>
</defs>
</svg>
