<svg xmlns="http://www.w3.org/2000/svg" width="18" height="18" viewBox="0 0 18 18" fill="none">
  <rect width="18" height="18" rx="2" fill="#2563EB"/>
  <path d="M14.7613 5.21934C14.9017 5.35997 14.9806 5.55059 14.9806 5.74934C14.9806 5.94809 14.9017 6.13871 14.7613 6.27934L7.51127 13.5293C7.37064 13.6698 7.18002 13.7487 6.98127 13.7487C6.78252 13.7487 6.59189 13.6698 6.45127 13.5293L3.20127 10.2793C3.06886 10.1371 2.99676 9.94903 3.00011 9.75471C3.00347 9.56039 3.08202 9.37494 3.21927 9.23734C3.35687 9.1001 3.54232 9.02154 3.73664 9.01818C3.93095 9.01483 4.11901 9.08693 4.26127 9.21934L6.98127 11.9393L13.7013 5.21934C13.8419 5.07889 14.0325 5 14.2313 5C14.43 5 14.6206 5.07889 14.7613 5.21934Z" fill="white"/>
</svg>