<svg width="15" height="19" viewBox="0 0 15 19" fill="none" xmlns="http://www.w3.org/2000/svg">
<path d="M10.0981 16.4062C9.40524 17.4688 8.53916 18 7.49987 18C6.46058 18 5.5945 17.4688 4.90164 16.4062M12.7842 14.8125H2.21557C1.26809 14.8125 0.5 14.0273 0.5 13.0586C0.5 12.7407 0.584505 12.4288 0.744481 12.1562C1.76457 10.4181 2.30342 8.42928 2.30342 6.40231V5.25C2.30342 2.90279 4.16464 1 6.46058 1H8.53916C10.8351 1 12.6963 2.90279 12.6963 5.25V6.40231C12.6963 8.42928 13.2352 10.4181 14.2553 12.1562C14.7427 12.9869 14.4793 14.0642 13.6668 14.5626C13.4002 14.7261 13.0951 14.8125 12.7842 14.8125Z" stroke="white" stroke-linecap="round" stroke-linejoin="round"/>
</svg>
