<svg xmlns="http://www.w3.org/2000/svg" width="10" height="11" viewBox="0 0 10 11" fill="none">
  <path d="M5 2.82558C4.80734 2.82558 4.65116 2.98176 4.65116 3.17442L4.65116 5.96512C4.65116 6.15777 4.80734 6.31395 5 6.31395C5.19266 6.31395 5.34884 6.15777 5.34884 5.96512L5.34884 3.17442C5.34884 2.98176 5.19266 2.82558 5 2.82558Z" fill="#DE291D"/>
  <path d="M5 7.82558C4.74312 7.82558 4.53488 7.61734 4.53488 7.36046C4.53488 7.10359 4.74312 6.89535 5 6.89535C5.25688 6.89535 5.46512 7.10359 5.46512 7.36046C5.46512 7.61734 5.25688 7.82558 5 7.82558Z" fill="#DE291D"/>
  <path fill-rule="evenodd" clip-rule="evenodd" d="M10 5.5C10 8.26142 7.76142 10.5 5 10.5C2.23858 10.5 1.95703e-07 8.26142 4.37114e-07 5.5C6.78525e-07 2.73858 2.23858 0.499999 5 0.5C7.76142 0.5 10 2.73858 10 5.5ZM5 9.80233C7.37611 9.80233 9.30233 7.87611 9.30233 5.5C9.30233 3.12389 7.37611 1.19767 5 1.19767C2.62389 1.19767 0.697674 3.12389 0.697674 5.5C0.697674 7.87611 2.62389 9.80232 5 9.80233Z" fill="#DE291D"/>
</svg>