<svg xmlns="http://www.w3.org/2000/svg" width="14" height="14" viewBox="0 0 14 14" fill="none">
  <path d="M7.00016 0.333008C3.32016 0.333008 0.333496 3.31967 0.333496 6.99967C0.333496 10.6797 3.32016 13.6663 7.00016 13.6663C10.6802 13.6663 13.6668 10.6797 13.6668 6.99967C13.6668 3.31967 10.6802 0.333008 7.00016 0.333008ZM5.1935 9.85968L2.80016 7.46634C2.54016 7.20634 2.54016 6.78634 2.80016 6.52634C3.06016 6.26634 3.48016 6.26634 3.74016 6.52634L5.66683 8.44634L10.2535 3.85967C10.5135 3.59967 10.9335 3.59967 11.1935 3.85967C11.4535 4.11967 11.4535 4.53967 11.1935 4.79967L6.1335 9.85968C5.88016 10.1197 5.4535 10.1197 5.1935 9.85968Z" fill="#2563EB"/>
</svg>